<svg xmlns="http://www.w3.org/2000/svg" viewBox="0 0 100 125">
    <path fill="#0e0d09" stroke="none" d=" M 87.5 77.5 L 87.5 32.5 52.5 32.5 52.5 22.5 47.5 22.5 47.5 32.5 12.5 32.5 12.5 77.5 87.5 77.5 M 82.5 37.5 L 82.5 72.5 17.5 72.5 17.5 37.5 82.5 37.5 M 52.5 52.5 L 47.5 52.5 47.5 57.5 52.5 57.5 52.5 52.5 M 77.5 62.5 L 72.5 62.5 72.5 67.5 77.5 67.5 77.5 62.5 M 62.5 57.5 L 62.5 52.5 57.5 52.5 57.5 57.5 62.5 57.5 M 72.5 57.5 L 72.5 52.5 67.5 52.5 67.5 57.5 72.5 57.5 M 32.5 62.5 L 32.5 67.5 67.5 67.5 67.5 62.5 32.5 62.5 M 22.5 67.5 L 27.5 67.5 27.5 62.5 22.5 62.5 22.5 67.5 M 32.5 57.5 L 32.5 52.5 27.5 52.5 27.5 57.5 32.5 57.5 M 37.5 52.5 L 37.5 57.5 42.5 57.5 42.5 52.5 37.5 52.5 M 27.5 47.5 L 27.5 42.5 22.5 42.5 22.5 47.5 27.5 47.5 M 32.5 42.5 L 32.5 47.5 37.5 47.5 37.5 42.5 32.5 42.5 M 77.5 42.5 L 72.5 42.5 72.5 47.5 77.5 47.5 77.5 42.5 M 67.5 47.5 L 67.5 42.5 62.5 42.5 62.5 47.5 67.5 47.5 M 57.5 47.5 L 57.5 42.5 52.5 42.5 52.5 47.5 57.5 47.5 M 47.5 42.5 L 42.5 42.5 42.5 47.5 47.5 47.5 47.5 42.5 Z"/>
</svg>