<svg xmlns="http://www.w3.org/2000/svg" viewBox="0 0 124 33"><defs><style>.cls-1{fill:#60a20d;}</style></defs><path class="cls-1" d="M119.42,15.25C115.6,12.08,111.91,9,108.23,6c.73-.73,1.39-1.41,2.12-2.16,4.53,3.76,9.05,7.54,13.65,11.4Q117.1,21,110.38,26.57c-.73-.71-1.41-1.39-2.14-2.12Z"/><path class="cls-1" d="M98.28,24.36l11.23-9.26C105.72,12,102,8.89,98.28,5.76,99,5,99.63,4.33,100.36,3.58L114.09,15c-.82.69-1.59,1.36-2.37,2-3.55,3-7.12,5.92-10.66,8.92-.57.5-.92.44-1.36-.1S98.77,24.89,98.28,24.36Z"/><path class="cls-1" d="M84.89,15.12c.15-.31.25-.5.32-.69,1.43-3.07,2.86-6.17,4.32-9.24.36-.76,2.27-1.15,2.85-.55a1,1,0,0,1,0,.82c-.71,1.47-1.43,2.94-2.18,4.39-1.22,2.44-2.46,4.89-3.67,7.33a3.17,3.17,0,0,0-.31,1.32c0,2.27,0,4.56,0,6.84,0,.67-.23.92-.88.94-1.81.08-1.81.1-1.81-1.68,0-1.93,0-3.84,0-5.77a4.32,4.32,0,0,0-.42-1.76C81.2,13.28,79.29,9.52,77.4,5.76c-.57-1.13-.42-1.36.86-1.38a2.05,2.05,0,0,1,2.2,1.36c1.28,3,2.69,5.84,4,8.77A4.63,4.63,0,0,0,84.89,15.12Z"/><path class="cls-1" d="M76.79,26.27c-1.36,0-1.36,0-1.8-1.26s-.94-2.6-1.36-3.9a.88.88,0,0,0-1-.69c-2.58,0-5.18,0-7.75,0a.92.92,0,0,0-1,.74c-.44,1.36-1,2.69-1.36,4.07a1.27,1.27,0,0,1-1.43,1.05c-1.68,0-1.76-.1-1.18-1.68,2.27-6.32,4.58-12.62,6.84-19,.27-.74.61-1.22,1.43-1.2a8.38,8.38,0,0,1,2,.15c.31.08.59.53.73.88,1.2,3.27,2.37,6.53,3.55,9.8l3.44,9.51c.06.17.13.34.17.52.21.74.1.94-.67,1Zm-4.11-7.94c-1.3-3.72-2.56-7.3-3.8-10.87h-.27L64.86,18.32Z"/><path class="cls-1" d="M46.6,15.52V5.91c0-1.09.27-1.39,1.34-1.38,2.12,0,4.26,0,6.36.17,3.74.34,5.9,3.34,5.46,7.1a6.63,6.63,0,0,1-6.42,6c-1.13.08-2.23.13-3.36.13-.59,0-.74.21-.74.76,0,2.23,0,4.45,0,6.68,0,.69-.25.9-.9.92-1.78.06-1.78.08-1.78-1.7C46.6,21.55,46.6,18.53,46.6,15.52Zm2.65-4.3V15c0,.4,0,.74.55.73a25.34,25.34,0,0,0,3.82-.19A4.41,4.41,0,0,0,56.8,9.84,3.72,3.72,0,0,0,53.63,6.9c-1.22-.11-2.44-.11-3.67-.17-.53,0-.73.21-.71.73C49.27,8.7,49.25,10,49.25,11.22Z"/><path class="cls-1" d="M41.46,15.15A14.94,14.94,0,0,1,40,21.84,9.7,9.7,0,0,1,39.36,23c-.69,1-.73,1,.25,1.66,1.16.76,2.58,1.59,3.8,2.25,1,.5.55,2.54,0,2.54A17.93,17.93,0,0,1,38,26.5,2.7,2.7,0,0,0,34.93,26a10,10,0,0,1-9.55-1.28,8.32,8.32,0,0,1-3-5.61,18.33,18.33,0,0,1,.23-7.89,8.83,8.83,0,0,1,8.94-7,10.39,10.39,0,0,1,5.75,1.32c2.56,1.59,3.57,4.11,4,6.93C41.37,13.36,41.4,14.26,41.46,15.15Zm-16.54.44c.06.61.08,1.47.19,2.33A7.79,7.79,0,0,0,27,22.45c3.28,3.42,9.53,1.8,10.94-2.88a15.19,15.19,0,0,0,0-8.61,5.83,5.83,0,0,0-3.06-3.84,7.32,7.32,0,0,0-3.67-.57,5.77,5.77,0,0,0-4.55,2.33C25.23,10.78,25,13,24.92,15.59Z"/><path class="cls-1" d="M17.3,25.29c0,.76-.27,1-1,1h-.15c-1.57,0-1.57,0-1.57-1.55v-19c0-1.16.32-1.45,1.51-1.38s1.16.19,1.16,1.24C17.28,8.89,17.26,22,17.3,25.29Z"/><path class="cls-1" d="M0,15.17C0,12,0,8.83,0,5.64c0-.8.25-1.13,1.05-1.22,1.28-.17,1.76.17,1.78,1.45,0,5.71,0,11.42,0,17.13,0,.69.17.94.9.92,2.18,0,4.35,0,6.53,0,.82,0,.92.13.94,1.11s-.13,1.22-.92,1.22H1.34c-.94,0-1.3-.36-1.3-1.3C0,21.68,0,18.42,0,15.17Z"/></svg>