<svg id="logo" xmlns="http://www.w3.org/2000/svg" viewBox="0 0 80 80"><defs><style>.cls-1{fill:#6a6544;}</style></defs><title>logo</title><path class="cls-1" d="M59.84,55.85V29.21H20.16V55.84c0,.32-.09,7.85,5.9,11,4.48,2.37,10.78,7.67,12.85,9.41.36.31.58.48.72.59l.12.15h.5l.12-.15c.14-.1.35-.28.71-.59,2.07-1.74,8.38-7,12.85-9.41,6-3.17,5.91-10.7,5.9-11M53.44,65.91c-4.58,2.42-10.95,7.78-13,9.53l-.33.27L40,75.64l-.07.09-.33-.28c-2.09-1.76-8.46-7.11-13-9.53-5.4-2.86-5.34-10-5.33-10.06V30.28H58.78V55.86C58.78,55.93,58.85,63.05,53.44,65.91Z"/><path class="cls-1" d="M23.88,33v23c0,.23,0,5.6,3.92,7.65A77,77,0,0,1,39.66,72l.34.28.34-.28a77,77,0,0,1,11.87-8.48c3.87-2,3.92-7.4,3.92-7.62V33ZM51.71,62.61A76.28,76.28,0,0,0,40,70.93a76.33,76.33,0,0,0-11.71-8.33C25,60.86,24.94,56,24.94,55.9V34H55.06V55.93S55,60.86,51.71,62.61Z"/><path class="cls-1" d="M51.19,16.42a5.28,5.28,0,0,0,1.9-2.85l.14-.57-.58-.08a5.07,5.07,0,0,0-3.34.73,5.28,5.28,0,0,0-1.9,2.85l-.14.57.58.08a5.08,5.08,0,0,0,3.34-.72m-1.28-1.9A3.77,3.77,0,0,1,51.84,14a3.76,3.76,0,0,1-1.24,1.59,3.76,3.76,0,0,1-1.92.57A3.78,3.78,0,0,1,49.91,14.52Zm13.4,7.95A6.51,6.51,0,0,0,66.6,19.8l.3-.51L66.37,19a6.3,6.3,0,0,0-4.21-.38,6.5,6.5,0,0,0-3.29,2.67l-.3.5.53.25A6.25,6.25,0,0,0,63.31,22.47Zm-.84-2.79a5,5,0,0,1,2.84.1A5,5,0,0,1,63,21.45a5,5,0,0,1-2.84-.1A5,5,0,0,1,62.47,19.68ZM56,24.13a4.58,4.58,0,0,0-3-.54l-.58.1.16.57a4.64,4.64,0,0,0,1.76,2.45,4.23,4.23,0,0,0,2.25.59,4.4,4.4,0,0,0,.71-.05l.58-.1-.16-.57A4.64,4.64,0,0,0,56,24.13Zm-1.05,1.68a3.11,3.11,0,0,1-1-1.2,3.08,3.08,0,0,1,1.52.42,3.11,3.11,0,0,1,1,1.2A3.08,3.08,0,0,1,54.93,25.81ZM28.81,16.42a5.28,5.28,0,0,1-1.9-2.85L26.76,13l.58-.08a5.07,5.07,0,0,1,3.34.73,5.28,5.28,0,0,1,1.9,2.85l.14.57-.58.08A5.08,5.08,0,0,1,28.81,16.42Zm1.28-1.9A3.77,3.77,0,0,0,28.16,14a3.76,3.76,0,0,0,1.24,1.59,3.76,3.76,0,0,0,1.92.57A3.78,3.78,0,0,0,30.09,14.52Zm-13.4,7.95A6.51,6.51,0,0,1,13.4,19.8l-.3-.51.53-.25a6.3,6.3,0,0,1,4.21-.38,6.5,6.5,0,0,1,3.29,2.67l.3.5-.53.25A6.25,6.25,0,0,1,16.69,22.47Zm.84-2.79a5,5,0,0,0-2.84.1A5,5,0,0,0,17,21.45a5,5,0,0,0,2.84-.1A5,5,0,0,0,17.53,19.68ZM24,24.13a4.58,4.58,0,0,1,3-.54l.58.1-.16.57a4.64,4.64,0,0,1-1.76,2.45,4.23,4.23,0,0,1-2.25.59,4.4,4.4,0,0,1-.71-.05l-.58-.1.16-.57A4.64,4.64,0,0,1,24,24.13Zm1.05,1.68a3.11,3.11,0,0,0,1-1.2,3.08,3.08,0,0,0-1.52.42,3.11,3.11,0,0,0-1,1.2A3.08,3.08,0,0,0,25.07,25.81ZM40,6.61a4.53,4.53,0,0,0,2.18,2.51A4.53,4.53,0,0,0,40,11.64a4.53,4.53,0,0,0-2.18-2.51A4.53,4.53,0,0,0,40,6.61Zm0,20,.41-.51A5.39,5.39,0,0,0,41.53,23c0-2.1-2.77-4.28.48-5.69l.65-.28c1.22.87,3,.89,4.36,1.45a5.38,5.38,0,0,1,3.17,4.54c.15,2.91-3.75,3.84-5.69,1.76s0-4.1,1.39-3.33a.92.92,0,0,1,.52,1.13.53.53,0,1,0,1,.43,2,2,0,0,0-1-2.5c-2.46-1.34-5.32,2.16-2.67,5s7.73,1.35,7.53-2.54a5.87,5.87,0,0,0-.69-2.34c1.36,1.18,2.21,2.06,4.1,2.06a28.13,28.13,0,0,1,9.39,3.52,15,15,0,0,0,2.37,1.13,1.42,1.42,0,1,0,.79-2.69A1.21,1.21,0,0,0,66,26.08c-.41-.2-.91-.47-1.46-.76a34.08,34.08,0,0,0-7.49-3.19c2.44-1.47,1.4-6-1.57-5.82A2.58,2.58,0,0,0,53,18.94a1.91,1.91,0,0,0,3,1.52,1.11,1.11,0,0,0,.35-1.17.53.53,0,1,0-1,.27.16.16,0,0,1,0,.07c-.12.21-1.26.16-1.26-.67a1.54,1.54,0,0,1,1.51-1.58c1.84,0,2.44,3,1,3.83-2.86,1.66-4.7-1.09-6.8-2.5A12.29,12.29,0,0,0,45,16.91c-2.63-.6-2.63-2-2.63-2.44,0-2.06,2-3.25,3.16-1.93a1.27,1.27,0,0,1-.94,2.14.79.79,0,0,1-.68-.32c-.07-.16.11-.29.26-.09a.53.53,0,0,0,.73.13.54.54,0,0,0,.13-.74,1.3,1.3,0,0,0-1-.56A1.26,1.26,0,0,0,43,14.82a1.81,1.81,0,0,0,1.55.93,2.34,2.34,0,0,0,1.89-3.83c-1.75-2.14-5.08-.65-5.08,2.55a3.09,3.09,0,0,0,.58,1.85c-3.07-1.38-.83-5.61,1.71-6.71l1.13-.49-1.13-.49C40.76,7.4,40.77,5.69,40,3c-.77,2.69-.76,4.4-3.61,5.64l-1.13.49,1.13.49c2.55,1.1,4.78,5.33,1.71,6.71a3.09,3.09,0,0,0,.58-1.85c0-3.2-3.34-4.68-5.08-2.55a2.34,2.34,0,0,0,1.89,3.83A1.81,1.81,0,0,0,37,14.82a1.26,1.26,0,0,0-1.13-1.71,1.3,1.3,0,0,0-1,.56.54.54,0,0,0,.13.74.53.53,0,0,0,.73-.13c.15-.2.33-.07.26.09a.79.79,0,0,1-.68.32,1.27,1.27,0,0,1-.94-2.14c1.21-1.32,3.16-.14,3.16,1.93,0,.45,0,1.84-2.63,2.44a12.29,12.29,0,0,0-4.75,1.78c-2.1,1.4-3.94,4.16-6.8,2.5-1.45-.84-.85-3.87,1-3.83A1.54,1.54,0,0,1,26,18.95c0,.83-1.13.89-1.26.67a.17.17,0,0,1,0-.07.53.53,0,1,0-1-.27A1.11,1.11,0,0,0,24,20.46a1.91,1.91,0,0,0,3-1.52,2.58,2.58,0,0,0-2.51-2.63c-3-.13-4,4.35-1.57,5.82a34.08,34.08,0,0,0-7.49,3.19c-.55.29-1,.56-1.46.76a1.21,1.21,0,0,0-1.2-1.37,1.42,1.42,0,1,0,.79,2.69,15,15,0,0,0,2.37-1.13,28.13,28.13,0,0,1,9.39-3.52c1.89,0,2.74-.89,4.1-2.06A5.87,5.87,0,0,0,28.75,23c-.2,3.9,4.9,5.36,7.53,2.54s-.21-6.34-2.67-5a2,2,0,0,0-1,2.5.53.53,0,1,0,1-.43.92.92,0,0,1,.52-1.13c1.42-.77,3.19,1.39,1.39,3.33S29.66,26,29.81,23.07A5.38,5.38,0,0,1,33,18.52c1.37-.55,3.14-.58,4.36-1.45l.65.28c3.25,1.41.48,3.59.48,5.69a5.39,5.39,0,0,0,1.12,3.07Zm0-5.32a3.5,3.5,0,0,1,0,3.48,3.5,3.5,0,0,1,0-3.48Zm0-5.19a2.4,2.4,0,0,0,.68.76,2.41,2.41,0,0,0-.68.76,2.41,2.41,0,0,0-.68-.76A2.4,2.4,0,0,0,40,16.11Z"/><path class="cls-1" d="M39.49,38.83q5.38,0,7.95,2.45T50,48.76q0,5.17-2.46,7.7T40.11,59l-6.69-.06H30V57.83l2.56-.4V40.31L30,39.92V38.83Zm5.57,10.05q0-4.34-1.58-6.38t-5.14-2h-1.1V57.21c1,.08,1.82.12,2.59.12a5,5,0,0,0,3.06-.84,4.81,4.81,0,0,0,1.65-2.63A18.75,18.75,0,0,0,45.05,48.88Z"/><path class="cls-1" d="M61.49,66l.29.51.48-.34a6.9,6.9,0,0,0,2.51-3.72A6.93,6.93,0,0,0,64,58l-.29-.51-.48.34a6.91,6.91,0,0,0-2.51,3.72A6.93,6.93,0,0,0,61.49,66m.27-4.2a5.47,5.47,0,0,1,1.6-2.65,4.76,4.76,0,0,1-1.23,5.73A5.47,5.47,0,0,1,61.77,61.82ZM70.51,53a7.48,7.48,0,0,0-4.9-1l-.58.09.15.57A7.73,7.73,0,0,0,68,56.76a7.47,7.47,0,0,0,4.9,1l.58-.09-.15-.57A7.71,7.71,0,0,0,70.51,53ZM68.6,55.87A6.3,6.3,0,0,1,66.42,53a6.11,6.11,0,0,1,3.51.88,6.29,6.29,0,0,1,2.18,2.9A6.11,6.11,0,0,1,68.6,55.87Zm-1.81,12C69,62.3,65.7,60.54,64,56.21c-3.91-9.84.33-25.65.51-26.32a.53.53,0,1,1,1,.28c0,.16-4.33,16.13-.55,25.64,1.9,4.78,5,6,2.78,12.27ZM74,36.39a4.84,4.84,0,0,0,3.28.08,5,5,0,0,0,2.41-2.23l.27-.52-.54-.22a4.87,4.87,0,0,0-3.28-.08,5,5,0,0,0-2.41,2.23l-.27.52Zm2.51-2a3.48,3.48,0,0,1,1.86-.1,3.53,3.53,0,0,1-1.47,1.16,3.48,3.48,0,0,1-1.86.1A3.52,3.52,0,0,1,76.55,34.42Zm-9.47-.71a5.08,5.08,0,0,0-.86,3.18l.05.59.57-.11a5,5,0,0,0,2.81-1.69A4.84,4.84,0,0,0,70.53,33a1.51,1.51,0,0,1,1.9.8c.78,1.56-1.19,2.76-2.13,3.36a9.35,9.35,0,0,0-2.47,1.9,13.49,13.49,0,0,0-2.71,8.82.53.53,0,0,0,1.06-.11,12.28,12.28,0,0,1,2.47-8,4.69,4.69,0,0,1,3.24-1.88c2.17-.17,3.1,1,3.24,2a1.63,1.63,0,0,1-.43,1.44A4.86,4.86,0,0,0,72,40.08a5,5,0,0,0-3.11,1l-.46.37.41.42a5,5,0,0,0,3,1.42,4.74,4.74,0,0,0,2.77-.8,2.46,2.46,0,0,0,1.63-2.84,3.51,3.51,0,0,0-3.67-2.92,3,3,0,0,0,.87-3.46C72.12,30.78,68.38,32,67.09,33.71Zm4.76,8.56a3.52,3.52,0,0,1-1.73-.67,3.09,3.09,0,0,1,3.54.23A3.49,3.49,0,0,1,71.85,42.27Zm-2.41-8.86A3.47,3.47,0,0,1,68.82,35a3.53,3.53,0,0,1-1.52,1.08,3.55,3.55,0,0,1,.63-1.76A2.17,2.17,0,0,1,69.44,33.41Z"/><path class="cls-1" d="M18.51,66l-.29.51-.48-.34a6.9,6.9,0,0,1-2.51-3.72A6.93,6.93,0,0,1,16,58l.29-.51.48.34a6.91,6.91,0,0,1,2.51,3.72A6.93,6.93,0,0,1,18.51,66Zm-.27-4.2a5.47,5.47,0,0,0-1.6-2.65,4.76,4.76,0,0,0,1.23,5.73A5.47,5.47,0,0,0,18.23,61.82ZM9.49,53a7.48,7.48,0,0,1,4.9-1l.58.09-.15.57A7.73,7.73,0,0,1,12,56.76a7.47,7.47,0,0,1-4.9,1l-.58-.09.15-.57A7.71,7.71,0,0,1,9.49,53Zm1.91,2.91A6.3,6.3,0,0,0,13.58,53a6.11,6.11,0,0,0-3.51.88,6.29,6.29,0,0,0-2.18,2.9A6.11,6.11,0,0,0,11.4,55.87Zm1.81,12C11,62.3,14.3,60.54,16,56.21c3.91-9.84-.33-25.65-.51-26.32a.53.53,0,1,0-1,.28c0,.16,4.33,16.13.55,25.64-1.9,4.78-5,6-2.78,12.27ZM6,36.39a4.84,4.84,0,0,1-3.28.08A5,5,0,0,1,.27,34.23L0,33.71l.54-.22a4.87,4.87,0,0,1,3.28-.08,5,5,0,0,1,2.41,2.23l.27.52Zm-2.51-2a3.48,3.48,0,0,0-1.86-.1,3.53,3.53,0,0,0,1.47,1.16,3.48,3.48,0,0,0,1.86.1A3.52,3.52,0,0,0,3.45,34.42Zm9.47-.71a5.08,5.08,0,0,1,.86,3.18l-.05.59-.57-.11a5,5,0,0,1-2.81-1.69A4.84,4.84,0,0,1,9.47,33a1.51,1.51,0,0,0-1.9.8c-.78,1.56,1.19,2.76,2.13,3.36a9.35,9.35,0,0,1,2.47,1.9,13.49,13.49,0,0,1,2.71,8.82.53.53,0,0,1-1.06-.11,12.27,12.27,0,0,0-2.47-8,4.69,4.69,0,0,0-3.24-1.88c-2.17-.17-3.1,1-3.24,2a1.63,1.63,0,0,0,.43,1.44A4.86,4.86,0,0,1,8,40.08a5,5,0,0,1,3.11,1l.46.37-.41.42a5,5,0,0,1-3,1.42,4.74,4.74,0,0,1-2.77-.8A2.46,2.46,0,0,1,3.82,39.7a3.51,3.51,0,0,1,3.67-2.92,3,3,0,0,1-.87-3.46C7.88,30.78,11.62,32,12.91,33.71ZM8.15,42.27a3.52,3.52,0,0,0,1.73-.67,3.5,3.5,0,0,0-1.81-.45,3.52,3.52,0,0,0-1.74.67A3.49,3.49,0,0,0,8.15,42.27Zm2.41-8.86A3.47,3.47,0,0,0,11.18,35a3.53,3.53,0,0,0,1.52,1.08,3.55,3.55,0,0,0-.63-1.76A2.17,2.17,0,0,0,10.56,33.41Z"/></svg>