<svg xmlns="http://www.w3.org/2000/svg" viewBox="0 0 124 33"><defs><style>.cls-1{fill:#179bd7;}.cls-2{fill:#253b80;}.cls-3{fill:#222d65;}</style></defs><g><path class="cls-1" d="M119.69,7.25l-2.82,17.92a.57.57,0,0,0,.56.66h2.83a1,1,0,0,0,.94-.81L124,7.43a.57.57,0,0,0-.56-.66h-3.17A.57.57,0,0,0,119.69,7.25Z"/><path class="cls-1" d="M115.82,13.12h-3.28a.57.57,0,0,0-.56.48l-.15.92-.23-.33c-.71-1-2.3-1.38-3.88-1.38a7.56,7.56,0,0,0-7.34,6.61,6.21,6.21,0,0,0,1.22,5,5.14,5.14,0,0,0,4.14,1.67,6.29,6.29,0,0,0,4.55-1.88l-.15.91a.57.57,0,0,0,.57.66h3a1,1,0,0,0,.94-.81l1.78-11.25A.57.57,0,0,0,115.82,13.12Zm-4.58,6.4a3.66,3.66,0,0,1-3.71,3.14,2.55,2.55,0,0,1-2.72-3.19,3.68,3.68,0,0,1,3.68-3.16,2.77,2.77,0,0,1,2.19.89A2.83,2.83,0,0,1,111.24,19.51Z"/><path class="cls-1" d="M95.31,6.77H88.45a1,1,0,0,0-.94.8l-2.78,17.6a.57.57,0,0,0,.56.66h3.52a.67.67,0,0,0,.66-.56l.79-5a1,1,0,0,1,.94-.81h2.17c4.52,0,7.13-2.19,7.81-6.52a5.28,5.28,0,0,0-.88-4.43C99.34,7.38,97.61,6.77,95.31,6.77Zm.79,6.43c-.37,2.46-2.26,2.46-4.08,2.46H91l.73-4.6a.57.57,0,0,1,.56-.48h.47c1.24,0,2.41,0,3,.71A2.29,2.29,0,0,1,96.1,13.2Z"/><path class="cls-2" d="M84.38,13.12h-3.3a1,1,0,0,0-.79.42l-4.55,6.71L73.8,13.8a1,1,0,0,0-.92-.68H69.64a.57.57,0,0,0-.54.76l3.64,10.67-3.42,4.83a.57.57,0,0,0,.47.9h3.3a1,1,0,0,0,.78-.41L84.85,14A.57.57,0,0,0,84.38,13.12Z"/><path class="cls-2" d="M66.88,13.12H63.59a.57.57,0,0,0-.56.48l-.15.92-.23-.33c-.71-1-2.3-1.38-3.88-1.38a7.56,7.56,0,0,0-7.34,6.61,6.2,6.2,0,0,0,1.22,5,5.14,5.14,0,0,0,4.14,1.67,6.29,6.29,0,0,0,4.55-1.88l-.15.91a.57.57,0,0,0,.56.66h3a1,1,0,0,0,.94-.81l1.78-11.25A.57.57,0,0,0,66.88,13.12Zm-4.58,6.4a3.66,3.66,0,0,1-3.71,3.14,2.55,2.55,0,0,1-2.72-3.19,3.68,3.68,0,0,1,3.68-3.16,2.77,2.77,0,0,1,2.19.89A2.84,2.84,0,0,1,62.3,19.51Z"/><path class="cls-2" d="M46.37,6.77H39.5a1,1,0,0,0-.94.8l-2.78,17.6a.57.57,0,0,0,.57.66h3.28a1,1,0,0,0,.94-.81l.75-4.75a1,1,0,0,1,.94-.81h2.17c4.52,0,7.13-2.19,7.81-6.52a5.29,5.29,0,0,0-.87-4.43C50.39,7.38,48.66,6.77,46.37,6.77Zm.79,6.43c-.38,2.46-2.26,2.46-4.08,2.46H42l.73-4.6a.57.57,0,0,1,.56-.48h.47c1.24,0,2.41,0,3,.71A2.29,2.29,0,0,1,47.16,13.2Z"/><path class="cls-3" d="M8.64,7.23,8.08,17.66,8,18a1.34,1.34,0,0,1,1.33-1.14h2.76c5.42,0,9.67-2.2,10.91-8.57,0-.19.07-.37.1-.55C22.72,5.86,8.8,4.25,8.64,7.23Z"/><path class="cls-1" d="M23.13,7.69h0q0,.27-.1.55c-1.24,6.37-5.49,8.57-10.91,8.57H9.36A1.34,1.34,0,0,0,8,18H8l-1.41,9-.4,2.54a.71.71,0,0,0,.7.82h4.9a1.18,1.18,0,0,0,1.16-1L13,29l.92-5.85.06-.32a1.18,1.18,0,0,1,1.16-1h.73c4.74,0,8.46-1.93,9.54-7.5.45-2.33.22-4.27-1-5.64A4.68,4.68,0,0,0,23.13,7.69Z"/><path class="cls-2" d="M9.65,7.72a1.18,1.18,0,0,1,1.16-1h7.38a15.34,15.34,0,0,1,2.43.18l.62.12.59.15.28.09a6.72,6.72,0,0,1,1,.43c.37-2.35,0-4-1.28-5.41S17.91,0,14.67,0H5.26A1.35,1.35,0,0,0,3.93,1.14L0,26a.81.81,0,0,0,.8.94H6.62l1.46-9.26Z"/></g></svg>